<svg xmlns="http://www.w3.org/2000/svg" width="20" height="20" viewBox="0 0 20 20" fill="none">
  <g clip-path="url(#clip0_1435_82)">
    <path d="M10 19C14.9706 19 19 14.9706 19 10C19 5.02944 14.9706 1 10 1C5.02944 1 1 5.02944 1 10C1 14.9706 5.02944 19 10 19Z" stroke="#93C5FD" stroke-linecap="round" stroke-linejoin="round"/>
    <path d="M10 7.75195C10.276 7.75208 10.5 7.97591 10.5 8.25195V14.4268H12.9316V15.4268H7.06836V14.4268H9.5V8.75195H7.06836V7.75195H10ZM9.67578 3.57812C10.392 3.57819 10.9727 4.15873 10.9727 4.875C10.9725 5.59112 10.3919 6.17181 9.67578 6.17188C8.95958 6.17188 8.37908 5.59116 8.37891 4.875C8.37891 4.1587 8.95948 3.57812 9.67578 3.57812Z" fill="#93C5FD"/>
  </g>
  <defs>
    <clipPath id="clip0_1435_82">
      <rect width="20" height="20" fill="white"/>
    </clipPath>
  </defs>
</svg>
