<svg xmlns="http://www.w3.org/2000/svg" width="20" height="18" viewBox="0 0 20 18" fill="none">
  <path d="M10 0.5C10.2013 0.5 10.3957 0.550409 10.5615 0.641602C10.6857 0.709909 10.7886 0.797744 10.8662 0.897461L10.9355 1.00098L19.3984 16.2344L19.3994 16.2354C19.473 16.3667 19.5055 16.5091 19.499 16.6494C19.4925 16.7898 19.4462 16.9303 19.3594 17.0576C19.2723 17.1852 19.1465 17.2964 18.9893 17.376C18.8317 17.4556 18.6503 17.4995 18.4639 17.5H1.53613C1.34975 17.4995 1.16832 17.4556 1.01074 17.376C0.853509 17.2964 0.727675 17.1852 0.640625 17.0576C0.553823 16.9303 0.507513 16.7898 0.500977 16.6494C0.494457 16.5091 0.527049 16.3667 0.600586 16.2354L0.601562 16.2344L9.06445 1.00098C9.14533 0.858901 9.27287 0.732707 9.43848 0.641602C9.60428 0.550408 9.79867 0.5 10 0.5Z" stroke="#FDBA74" stroke-linecap="round" stroke-linejoin="round"/>
  <path fill-rule="evenodd" clip-rule="evenodd" d="M10 6.00006C10.5523 6.00006 11 6.44778 11 7.00006L10.5 11.5001C10.5 11.5001 10.5523 12.0001 10 12.0001C9.44772 12.0001 9.5 11.5001 9.5 11.5001L9 7.00006C9 6.44778 9.44772 6.00006 10 6.00006Z" fill="#FDBA74"/>
  <circle cx="9.99976" cy="13.9999" r="1" fill="#FDBA74"/>
</svg>
