<svg xmlns="http://www.w3.org/2000/svg" width="14" height="14" viewBox="0 0 14 14" fill="none">
  <path d="M6.15625 0C9.55588 0.000318542 12.3115 2.75718 12.3115 6.15723C12.3113 7.67661 11.7589 9.06596 10.8467 10.1396L14 13.293L13.293 14L10.1396 10.8467C9.06591 11.7599 7.67628 12.3133 6.15625 12.3135C2.75662 12.3135 0.000440272 9.55709 0 6.15723C0 2.75698 2.75635 0 6.15625 0ZM6.15625 1C3.30878 1 1 3.30912 1 6.15723C1.00044 9.00496 3.30905 11.3135 6.15625 11.3135C9.00318 11.3132 11.3111 9.00476 11.3115 6.15723C11.3115 3.30932 9.00345 1.00032 6.15625 1Z" fill="#818181"/>
</svg>
